Coordinates
version=1
nRows=18
nColumns=22
inDegrees=yes

Units are S.I. units (second, meters, Newtons, ...)
If the header above contains a line with 'inDegrees', this indicates whether rotational values are in degrees (yes) or radians (no).

endheader
time	pelvis_tilt	pelvis_list	pelvis_rotation	pelvis_tx	pelvis_ty	pelvis_tz	hip_flexion_r	hip_adduction_r	hip_rotation_r	knee_angle_r	ankle_angle_r	subtalar_angle_r	hip_flexion_l	hip_adduction_l	hip_rotation_l	knee_angle_l	ankle_angle_l	subtalar_angle_l	lumbar_extension	lumbar_bending	lumbar_rotation
      0.01000000	     -3.35532736	     -7.54538219	      5.29534753	      0.14195360	      0.97415414	      1.28659465	      5.81856468	      8.61520244	     -4.20158332	    -15.39390038	     10.87248188	     -0.26570032	      4.75600441	     -9.06285529	      1.42114278	    -12.55368585	     13.12652983	     -0.15760971	      2.31643545	      7.08337786	     -7.56913028
      0.02000000	     -3.33812612	     -7.52735692	      5.37238155	      0.14199734	      0.97416406	      1.28645403	      5.81359487	      8.58655093	     -4.28250588	    -15.41901749	     10.88996315	     -0.24678781	      4.73658927	     -9.03671260	      1.49453974	    -12.52926094	     13.11566841	     -0.11201891	      2.31223197	      7.09383069	     -7.56402432
      0.03000000	     -3.33096666	     -7.51550308	      5.43533634	      0.14204707	      0.97415995	      1.28633853	      5.80760858	      8.56905823	     -4.31908606	    -15.42473372	     10.90134298	     -0.24433933	      4.73648337	     -9.01938926	      1.53631155	    -12.52484739	     13.11222859	     -0.10072125	      2.32093215	      7.11493837	     -7.51020157
      0.04000000	     -3.31515428	     -7.48834799	      5.54145226	      0.14207817	      0.97415915	      1.28614973	      5.81514969	      8.52661289	     -4.42579672	    -15.46759641	     10.92779436	     -0.24145834	      4.71976848	     -8.97917959	      1.64370155	    -12.49020839	     13.10145523	     -0.07392281	      2.32119691	      7.12306564	     -7.51356988
      0.05000000	     -3.30212371	     -7.46762544	      5.64066191	      0.14211784	      0.97415401	      1.28599002	      5.81549200	      8.49533685	     -4.50778961	    -15.49344648	     10.94680656	     -0.24179175	      4.71587046	     -8.94906550	      1.73164285	    -12.47633025	     13.09220431	     -0.05786802	      2.32910862	      7.13719372	     -7.48258659
      0.06000000	     -3.28855860	     -7.44636230	      5.74029099	      0.14214483	      0.97414912	      1.28582436	      5.81704818	      8.46292432	     -4.59010687	    -15.52075936	     10.96575013	     -0.24542132	      4.71008840	     -8.91732780	      1.81928645	    -12.45814801	     13.08289192	     -0.04618728	      2.33454658	      7.15338427	     -7.44862490
      0.07000000	     -3.27415187	     -7.42456010	      5.83917839	      0.14215555	      0.97414657	      1.28566559	      5.81626729	      8.43026968	     -4.67118694	    -15.54422679	     10.98345484	     -0.25063710	      4.70453873	     -8.88556909	      1.90755410	    -12.44024723	     13.07250828	     -0.03741254	      2.33735304	      7.16890074	     -7.41253087
      0.08000000	     -3.25957468	     -7.40296934	      5.93744675	      0.14216236	      0.97414569	      1.28551248	      5.81263864	      8.39861017	     -4.74937308	    -15.56287042	     10.99983173	     -0.25635105	      4.69815353	     -8.85462942	      1.99309691	    -12.42193589	     13.06084264	     -0.03092657	      2.33991864	      7.18337468	     -7.37880195
      0.09000000	     -3.24592609	     -7.38340415	      6.02885515	      0.14215501	      0.97414626	      1.28536819	      5.80774923	      8.36938226	     -4.81989106	    -15.57626993	     11.01367905	     -0.26125419	      4.69144861	     -8.82611465	      2.07216820	    -12.40204478	     13.04935679	     -0.02628380	      2.34097357	      7.20006387	     -7.34250880
      0.10000000	     -3.23329256	     -7.36509108	      6.11632363	      0.14213802	      0.97414683	      1.28522912	      5.80147352	      8.34198335	     -4.88615406	    -15.58432581	     11.02630414	     -0.26496471	      4.68382753	     -8.79931344	      2.14580135	    -12.37875321	     13.03722729	     -0.02266077	      2.34106427	      7.21732592	     -7.30881603
      0.11000000	     -3.22768517	     -7.35388785	      6.18428919	      0.14212996	      0.97414121	      1.28511747	      5.79248479	      8.32522687	     -4.92185330	    -15.57582762	     11.03552206	     -0.26648732	      4.68594162	     -8.78252779	      2.18084400	    -12.36602098	     13.03080307	     -0.02057046	      2.34914481	      7.24145733	     -7.25124007
      0.12000000	     -3.21012271	     -7.33393654	      6.28565283	      0.14211361	      0.97414853	      1.28495398	      5.78292966	      8.29281382	     -5.01624807	    -15.58758341	     11.04903498	     -0.26844764	      4.66165249	     -8.75247598	      2.28154663	    -12.31759212	     13.01176804	     -0.01548993	      2.34346320	      7.25475158	     -7.25026102
      0.13000000	     -3.20627558	     -7.32550304	      6.35483327	      0.14211921	      0.97413941	      1.28483405	      5.76963480	      8.27789318	     -5.05751892	    -15.56978073	     11.05932706	     -0.26911526	      4.66250400	     -8.73837627	      2.31235938	    -12.29955563	     13.00609764	     -0.01438311	      2.35432054	      7.27968968	     -7.19504002
      0.14000000	     -3.18337011	     -7.31241594	      6.46438219	      0.14212431	      0.97415073	      1.28466202	      5.74849020	      8.25282881	     -5.16341251	    -15.57179711	     11.07005154	     -0.26808643	      4.63029353	     -8.71668103	      2.41910609	    -12.24463357	     12.98615854	     -0.01160711	      2.34693625	      7.29750593	     -7.19858943
      0.15000000	     -3.17963976	     -7.30659620	      6.53580925	      0.14213549	      0.97414067	      1.28454015	      5.73245083	      8.24060795	     -5.20927709	    -15.54809730	     11.08150258	     -0.26820793	      4.63091888	     -8.70540739	      2.44924178	    -12.22471040	     12.98150988	     -0.01115567	      2.35884576	      7.32230277	     -7.13300474
      0.16000000	     -3.15287978	     -7.29872611	      6.64741299	      0.14214392	      0.97415480	      1.28437351	      5.70646874	      8.22183956	     -5.32088643	    -15.54785817	     11.09146898	     -0.26490847	      4.59397884	     -8.69033271	      2.56136207	    -12.16719093	     12.96302163	     -0.00970347	      2.34706565	      7.34265597	     -7.11920903
      0.17000000	     -3.14733488	     -7.29322357	      6.72142535	      0.14214465	      0.97414503	      1.28425884	      5.68763969	      8.21050086	     -5.36858633	    -15.52164591	     11.10397748	     -0.26420817	      4.59700273	     -8.68019220	      2.59639884	    -12.15224012	     12.95703771	     -0.00964212	      2.35453660	      7.36430827	     -7.04128033
      0.18000000	     -3.11776769	     -7.28463772	      6.83091880	      0.14213184	      0.97416381	      1.28411010	      5.66117827	      8.19242622	     -5.47852176	    -15.52343218	     11.11582615	     -0.25744746	      4.55973849	     -8.66533301	      2.71211861	    -12.09790300	     12.93940173	     -0.00990550	      2.33558723	      7.38075607	     -7.00954466
